<?xml version="1.0" encoding="utf-8"?>
<!-- Generator: Adobe Illustrator 22.0.0, SVG Export Plug-In . SVG Version: 6.00 Build 0)  -->
<svg version="1.1" id="Airline" xmlns="http://www.w3.org/2000/svg" xmlns:xlink="http://www.w3.org/1999/xlink" x="0px" y="0px"
	 viewBox="0 0 900 230" style="enable-background:new 0 0 900 230;" xml:space="preserve">
<style type="text/css">
	.st0{fill:#FFFFFF;}
	.st1{fill:#999999;}
	.st2{fill:#FFF63F;}
	.st3{fill:#1F5BFF;stroke:#4D4D4D;stroke-miterlimit:10;}
	.st4{fill:#1F88FF;stroke:#4D4D4D;stroke-miterlimit:10;}
	.st5{fill:#CCCCCC;}
	.st6{fill:#4D4D4D;}
	.st7{fill:#CCCCCC;stroke:#4D4D4D;stroke-miterlimit:10;}
	.st8{fill:#FF0000;}
</style>
<title>ghe 1</title>
<path class="st0" d="M249.5,211.5c-66.3,0-128.5-10.3-175.2-29C28.7,164.1,3.5,140.2,3.5,115s25.2-49.1,70.9-67.5
	c46.7-18.7,108.9-29,175.1-29h584.4c34,0,62.7,15,62.7,32.9v127.3c0,17.8-28.7,32.9-62.7,32.9L249.5,211.5z"/>
<path class="st1" d="M833.8,22c16.5,0,31.9,3.5,43.4,9.8c10,5.5,15.8,12.6,15.8,19.6v127.3c0,6.9-5.7,14.1-15.8,19.6
	c-11.5,6.3-26.9,9.8-43.4,9.8H249.5c-65.8,0-127.5-10.2-173.8-28.8c-22.1-8.9-39.3-19.1-51.3-30.4C12.9,137.9,7,126.5,7,115
	s5.9-22.9,17.4-33.8c11.9-11.3,29.2-21.5,51.3-30.4C122,32.2,183.7,22,249.5,22H833.8 M833.8,15H249.5C111.7,15,0,59.8,0,115
	s111.7,100,249.5,100h584.4c36.5,0,66.2-16.3,66.2-36.4V51.4C900,31.3,870.4,15,833.8,15z"/>
<g id="Ghe">
	<g id="S">
		<path id="S01" class="st2" d="M230.8,49h8.4c1,0,1.8,0.8,1.8,1.8v13.4c0,1-0.8,1.8-1.8,1.8h-8.4c-1,0-1.8-0.8-1.8-1.8V50.8
			C229,49.8,229.8,49,230.8,49z"/>
		<path id="S02" class="st2" d="M230.3,95.5h8.4c1,0,1.8,0.8,1.8,1.8v13.4c0,1-0.8,1.8-1.8,1.8h-8.4c-1,0-1.8-0.8-1.8-1.8V97.3
			C228.5,96.3,229.3,95.5,230.3,95.5z"/>
		<path id="S03" class="st2" d="M230.3,117.5h8.4c1,0,1.8,0.8,1.8,1.8v13.4c0,1-0.8,1.8-1.8,1.8h-8.4c-1,0-1.8-0.8-1.8-1.8v-13.4
			C228.5,118.3,229.3,117.5,230.3,117.5z"/>
		<path id="S04" class="st2" d="M230.3,164h8.4c1,0,1.8,0.8,1.8,1.8v13.4c0,1-0.8,1.8-1.8,1.8h-8.4c-1,0-1.8-0.8-1.8-1.8v-13.4
			C228.5,164.8,229.3,164,230.3,164z"/>
		<path id="S05" class="st2" d="M249.8,49h8.4c1,0,1.8,0.8,1.8,1.8v13.4c0,1-0.8,1.8-1.8,1.8h-8.4c-1,0-1.8-0.8-1.8-1.8V50.8
			C248,49.8,248.8,49,249.8,49z"/>
		<path id="S06" class="st2" d="M249.3,95.5h8.4c1,0,1.8,0.8,1.8,1.8v13.4c0,1-0.8,1.8-1.8,1.8h-8.4c-1,0-1.8-0.8-1.8-1.8V97.3
			C247.5,96.3,248.3,95.5,249.3,95.5z"/>
		<path id="S07" class="st2" d="M249.3,117.5h8.4c1,0,1.8,0.8,1.8,1.8v13.4c0,1-0.8,1.8-1.8,1.8h-8.4c-1,0-1.8-0.8-1.8-1.8v-13.4
			C247.5,118.3,248.3,117.5,249.3,117.5z"/>
		<path id="S08" class="st2" d="M249.3,164h8.4c1,0,1.8,0.8,1.8,1.8v13.4c0,1-0.8,1.8-1.8,1.8h-8.4c-1,0-1.8-0.8-1.8-1.8v-13.4
			C247.5,164.8,248.3,164,249.3,164z"/>
		<path id="S09" class="st2" d="M268.8,49h8.4c1,0,1.8,0.8,1.8,1.8v13.4c0,1-0.8,1.8-1.8,1.8h-8.4c-1,0-1.8-0.8-1.8-1.8V50.8
			C267,49.8,267.8,49,268.8,49z"/>
		<path id="S10" class="st2" d="M268.3,95.5h8.4c1,0,1.8,0.8,1.8,1.8v13.4c0,1-0.8,1.8-1.8,1.8h-8.4c-1,0-1.8-0.8-1.8-1.8V97.3
			C266.5,96.3,267.3,95.5,268.3,95.5z"/>
		<path id="S11" class="st2" d="M268.3,117.5h8.4c1,0,1.8,0.8,1.8,1.8v13.4c0,1-0.8,1.8-1.8,1.8h-8.4c-1,0-1.8-0.8-1.8-1.8v-13.4
			C266.5,118.3,267.3,117.5,268.3,117.5z"/>
		<path id="S12" class="st2" d="M268.3,164h8.4c1,0,1.8,0.8,1.8,1.8v13.4c0,1-0.8,1.8-1.8,1.8h-8.4c-1,0-1.8-0.8-1.8-1.8v-13.4
			C266.5,164.8,267.3,164,268.3,164z"/>
		<path id="S13" class="st2" d="M287.8,49h8.4c1,0,1.8,0.8,1.8,1.8v13.4c0,1-0.8,1.8-1.8,1.8h-8.4c-1,0-1.8-0.8-1.8-1.8V50.8
			C286,49.8,286.8,49,287.8,49z"/>
		<path id="S14" class="st2" d="M287.3,95.5h8.4c1,0,1.8,0.8,1.8,1.8v13.4c0,1-0.8,1.8-1.8,1.8h-8.4c-1,0-1.8-0.8-1.8-1.8V97.3
			C285.5,96.3,286.3,95.5,287.3,95.5z"/>
		<path id="S15" class="st2" d="M287.3,117.5h8.4c1,0,1.8,0.8,1.8,1.8v13.4c0,1-0.8,1.8-1.8,1.8h-8.4c-1,0-1.8-0.8-1.8-1.8v-13.4
			C285.5,118.3,286.3,117.5,287.3,117.5z"/>
		<path id="S16" class="st2" d="M287.3,164h8.4c1,0,1.8,0.8,1.8,1.8v13.4c0,1-0.8,1.8-1.8,1.8h-8.4c-1,0-1.8-0.8-1.8-1.8v-13.4
			C285.5,164.8,286.3,164,287.3,164z"/>
		<path id="S17" class="st2" d="M306.8,49h8.4c1,0,1.8,0.8,1.8,1.8v13.4c0,1-0.8,1.8-1.8,1.8h-8.4c-1,0-1.8-0.8-1.8-1.8V50.8
			C305,49.8,305.8,49,306.8,49z"/>
		<path id="S18" class="st2" d="M306.3,95.5h8.4c1,0,1.8,0.8,1.8,1.8v13.4c0,1-0.8,1.8-1.8,1.8h-8.4c-1,0-1.8-0.8-1.8-1.8V97.3
			C304.5,96.3,305.3,95.5,306.3,95.5z"/>
		<path id="S19" class="st2" d="M306.3,117.5h8.4c1,0,1.8,0.8,1.8,1.8v13.4c0,1-0.8,1.8-1.8,1.8h-8.4c-1,0-1.8-0.8-1.8-1.8v-13.4
			C304.5,118.3,305.3,117.5,306.3,117.5z"/>
		<path id="S20" class="st2" d="M306.3,164h8.4c1,0,1.8,0.8,1.8,1.8v13.4c0,1-0.8,1.8-1.8,1.8h-8.4c-1,0-1.8-0.8-1.8-1.8v-13.4
			C304.5,164.8,305.3,164,306.3,164z"/>
	</g>
	<g id="A">
		<path id="A01" class="st3" d="M368.6,36.5h6.9c1.7,0,3.1,1.4,3.1,3.1v6.9c0,1.7-1.4,3.1-3.1,3.1h-6.9c-1.7,0-3.1-1.4-3.1-3.1v-6.9
			C365.5,37.9,366.9,36.5,368.6,36.5z"/>
		<path id="A02" class="st3" d="M368.6,51h6.9c1.7,0,3.1,1.4,3.1,3.1V61c0,1.7-1.4,3.1-3.1,3.1h-6.9c-1.7,0-3.1-1.4-3.1-3.1v-6.9
			C365.5,52.4,366.9,51,368.6,51z"/>
		<path id="A03" class="st3" d="M368.6,65.5h6.9c1.7,0,3.1,1.4,3.1,3.1v6.9c0,1.7-1.4,3.1-3.1,3.1h-6.9c-1.7,0-3.1-1.4-3.1-3.1v-6.9
			C365.5,66.9,366.9,65.5,368.6,65.5z"/>
		<path id="A10" class="st3" d="M386.6,36.5h6.9c1.7,0,3.1,1.4,3.1,3.1v6.9c0,1.7-1.4,3.1-3.1,3.1h-6.9c-1.7,0-3.1-1.4-3.1-3.1v-6.9
			C383.5,37.9,384.9,36.5,386.6,36.5z"/>
		<path id="A11" class="st3" d="M386.6,51h6.9c1.7,0,3.1,1.4,3.1,3.1V61c0,1.7-1.4,3.1-3.1,3.1h-6.9c-1.7,0-3.1-1.4-3.1-3.1v-6.9
			C383.5,52.4,384.9,51,386.6,51z"/>
		<path id="A12" class="st3" d="M386.6,65.5h6.9c1.7,0,3.1,1.4,3.1,3.1v6.9c0,1.7-1.4,3.1-3.1,3.1h-6.9c-1.7,0-3.1-1.4-3.1-3.1v-6.9
			C383.5,66.9,384.9,65.5,386.6,65.5z"/>
		<path id="A19" class="st3" d="M404.6,36.5h6.9c1.7,0,3.1,1.4,3.1,3.1v6.9c0,1.7-1.4,3.1-3.1,3.1h-6.9c-1.7,0-3.1-1.4-3.1-3.1v-6.9
			C401.5,37.9,402.9,36.5,404.6,36.5z"/>
		<path id="A20" class="st3" d="M404.6,51h6.9c1.7,0,3.1,1.4,3.1,3.1V61c0,1.7-1.4,3.1-3.1,3.1h-6.9c-1.7,0-3.1-1.4-3.1-3.1v-6.9
			C401.5,52.4,402.9,51,404.6,51z"/>
		<path id="A21" class="st3" d="M404.6,65.5h6.9c1.7,0,3.1,1.4,3.1,3.1v6.9c0,1.7-1.4,3.1-3.1,3.1h-6.9c-1.7,0-3.1-1.4-3.1-3.1v-6.9
			C401.5,66.9,402.9,65.5,404.6,65.5z"/>
		<path id="A28" class="st3" d="M422.6,36.5h6.9c1.7,0,3.1,1.4,3.1,3.1v6.9c0,1.7-1.4,3.1-3.1,3.1h-6.9c-1.7,0-3.1-1.4-3.1-3.1v-6.9
			C419.5,37.9,420.9,36.5,422.6,36.5z"/>
		<path id="A29" class="st3" d="M422.6,51h6.9c1.7,0,3.1,1.4,3.1,3.1V61c0,1.7-1.4,3.1-3.1,3.1h-6.9c-1.7,0-3.1-1.4-3.1-3.1v-6.9
			C419.5,52.4,420.9,51,422.6,51z"/>
		<path id="A30" class="st3" d="M422.6,65.5h6.9c1.7,0,3.1,1.4,3.1,3.1v6.9c0,1.7-1.4,3.1-3.1,3.1h-6.9c-1.7,0-3.1-1.4-3.1-3.1v-6.9
			C419.5,66.9,420.9,65.5,422.6,65.5z"/>
		<path id="A37" class="st3" d="M440.6,36.5h6.9c1.7,0,3.1,1.4,3.1,3.1v6.9c0,1.7-1.4,3.1-3.1,3.1h-6.9c-1.7,0-3.1-1.4-3.1-3.1v-6.9
			C437.5,37.9,438.9,36.5,440.6,36.5z"/>
		<path id="A38" class="st3" d="M440.6,51h6.9c1.7,0,3.1,1.4,3.1,3.1V61c0,1.7-1.4,3.1-3.1,3.1h-6.9c-1.7,0-3.1-1.4-3.1-3.1v-6.9
			C437.5,52.4,438.9,51,440.6,51z"/>
		<path id="A39" class="st3" d="M440.6,65.5h6.9c1.7,0,3.1,1.4,3.1,3.1v6.9c0,1.7-1.4,3.1-3.1,3.1h-6.9c-1.7,0-3.1-1.4-3.1-3.1v-6.9
			C437.5,66.9,438.9,65.5,440.6,65.5z"/>
		<path id="A04" class="st3" d="M368.6,94h6.9c1.7,0,3.1,1.4,3.1,3.1v6.9c0,1.7-1.4,3.1-3.1,3.1h-6.9c-1.7,0-3.1-1.4-3.1-3.1v-6.9
			C365.5,95.4,366.9,94,368.6,94z"/>
		<path id="A05" class="st3" d="M368.6,108.5h6.9c1.7,0,3.1,1.4,3.1,3.1v6.9c0,1.7-1.4,3.1-3.1,3.1h-6.9c-1.7,0-3.1-1.4-3.1-3.1
			v-6.9C365.5,109.9,366.9,108.5,368.6,108.5z"/>
		<path id="A06" class="st3" d="M368.6,123h6.9c1.7,0,3.1,1.4,3.1,3.1v6.9c0,1.7-1.4,3.1-3.1,3.1h-6.9c-1.7,0-3.1-1.4-3.1-3.1v-6.9
			C365.5,124.4,366.9,123,368.6,123z"/>
		<path id="A13" class="st3" d="M386.6,94h6.9c1.7,0,3.1,1.4,3.1,3.1v6.9c0,1.7-1.4,3.1-3.1,3.1h-6.9c-1.7,0-3.1-1.4-3.1-3.1v-6.9
			C383.5,95.4,384.9,94,386.6,94z"/>
		<path id="A14" class="st3" d="M386.6,108.5h6.9c1.7,0,3.1,1.4,3.1,3.1v6.9c0,1.7-1.4,3.1-3.1,3.1h-6.9c-1.7,0-3.1-1.4-3.1-3.1
			v-6.9C383.5,109.9,384.9,108.5,386.6,108.5z"/>
		<path id="A15" class="st3" d="M386.6,123h6.9c1.7,0,3.1,1.4,3.1,3.1v6.9c0,1.7-1.4,3.1-3.1,3.1h-6.9c-1.7,0-3.1-1.4-3.1-3.1v-6.9
			C383.5,124.4,384.9,123,386.6,123z"/>
		<path id="A22" class="st3" d="M404.6,94h6.9c1.7,0,3.1,1.4,3.1,3.1v6.9c0,1.7-1.4,3.1-3.1,3.1h-6.9c-1.7,0-3.1-1.4-3.1-3.1v-6.9
			C401.5,95.4,402.9,94,404.6,94z"/>
		<path id="A23" class="st3" d="M404.6,108.5h6.9c1.7,0,3.1,1.4,3.1,3.1v6.9c0,1.7-1.4,3.1-3.1,3.1h-6.9c-1.7,0-3.1-1.4-3.1-3.1
			v-6.9C401.5,109.9,402.9,108.5,404.6,108.5z"/>
		<path id="A24" class="st3" d="M404.6,123h6.9c1.7,0,3.1,1.4,3.1,3.1v6.9c0,1.7-1.4,3.1-3.1,3.1h-6.9c-1.7,0-3.1-1.4-3.1-3.1v-6.9
			C401.5,124.4,402.9,123,404.6,123z"/>
		<path id="A31" class="st3" d="M422.6,94h6.9c1.7,0,3.1,1.4,3.1,3.1v6.9c0,1.7-1.4,3.1-3.1,3.1h-6.9c-1.7,0-3.1-1.4-3.1-3.1v-6.9
			C419.5,95.4,420.9,94,422.6,94z"/>
		<path id="A32" class="st3" d="M422.6,108.5h6.9c1.7,0,3.1,1.4,3.1,3.1v6.9c0,1.7-1.4,3.1-3.1,3.1h-6.9c-1.7,0-3.1-1.4-3.1-3.1
			v-6.9C419.5,109.9,420.9,108.5,422.6,108.5z"/>
		<path id="A33" class="st3" d="M422.6,123h6.9c1.7,0,3.1,1.4,3.1,3.1v6.9c0,1.7-1.4,3.1-3.1,3.1h-6.9c-1.7,0-3.1-1.4-3.1-3.1v-6.9
			C419.5,124.4,420.9,123,422.6,123z"/>
		<path id="A40" class="st3" d="M440.6,94h6.9c1.7,0,3.1,1.4,3.1,3.1v6.9c0,1.7-1.4,3.1-3.1,3.1h-6.9c-1.7,0-3.1-1.4-3.1-3.1v-6.9
			C437.5,95.4,438.9,94,440.6,94z"/>
		<path id="A41" class="st3" d="M440.6,108.5h6.9c1.7,0,3.1,1.4,3.1,3.1v6.9c0,1.7-1.4,3.1-3.1,3.1h-6.9c-1.7,0-3.1-1.4-3.1-3.1
			v-6.9C437.5,109.9,438.9,108.5,440.6,108.5z"/>
		<path id="A42" class="st3" d="M440.6,123h6.9c1.7,0,3.1,1.4,3.1,3.1v6.9c0,1.7-1.4,3.1-3.1,3.1h-6.9c-1.7,0-3.1-1.4-3.1-3.1v-6.9
			C437.5,124.4,438.9,123,440.6,123z"/>
		<path id="A07" class="st3" d="M368.6,151.5h6.9c1.7,0,3.1,1.4,3.1,3.1v6.9c0,1.7-1.4,3.1-3.1,3.1h-6.9c-1.7,0-3.1-1.4-3.1-3.1
			v-6.9C365.5,152.9,366.9,151.5,368.6,151.5z"/>
		<path id="A08" class="st3" d="M368.6,166h6.9c1.7,0,3.1,1.4,3.1,3.1v6.9c0,1.7-1.4,3.1-3.1,3.1h-6.9c-1.7,0-3.1-1.4-3.1-3.1v-6.9
			C365.5,167.4,366.9,166,368.6,166z"/>
		<path id="A09" class="st3" d="M368.6,180.5h6.9c1.7,0,3.1,1.4,3.1,3.1v6.9c0,1.7-1.4,3.1-3.1,3.1h-6.9c-1.7,0-3.1-1.4-3.1-3.1
			v-6.9C365.5,181.9,366.9,180.5,368.6,180.5z"/>
		<path id="A16" class="st3" d="M386.6,151.5h6.9c1.7,0,3.1,1.4,3.1,3.1v6.9c0,1.7-1.4,3.1-3.1,3.1h-6.9c-1.7,0-3.1-1.4-3.1-3.1
			v-6.9C383.5,152.9,384.9,151.5,386.6,151.5z"/>
		<path id="A17" class="st3" d="M386.6,166h6.9c1.7,0,3.1,1.4,3.1,3.1v6.9c0,1.7-1.4,3.1-3.1,3.1h-6.9c-1.7,0-3.1-1.4-3.1-3.1v-6.9
			C383.5,167.4,384.9,166,386.6,166z"/>
		<path id="A18" class="st3" d="M386.6,180.5h6.9c1.7,0,3.1,1.4,3.1,3.1v6.9c0,1.7-1.4,3.1-3.1,3.1h-6.9c-1.7,0-3.1-1.4-3.1-3.1
			v-6.9C383.5,181.9,384.9,180.5,386.6,180.5z"/>
		<path id="A25" class="st3" d="M404.6,151.5h6.9c1.7,0,3.1,1.4,3.1,3.1v6.9c0,1.7-1.4,3.1-3.1,3.1h-6.9c-1.7,0-3.1-1.4-3.1-3.1
			v-6.9C401.5,152.9,402.9,151.5,404.6,151.5z"/>
		<path id="A26" class="st3" d="M404.6,166h6.9c1.7,0,3.1,1.4,3.1,3.1v6.9c0,1.7-1.4,3.1-3.1,3.1h-6.9c-1.7,0-3.1-1.4-3.1-3.1v-6.9
			C401.5,167.4,402.9,166,404.6,166z"/>
		<path id="A27" class="st3" d="M404.6,180.5h6.9c1.7,0,3.1,1.4,3.1,3.1v6.9c0,1.7-1.4,3.1-3.1,3.1h-6.9c-1.7,0-3.1-1.4-3.1-3.1
			v-6.9C401.5,181.9,402.9,180.5,404.6,180.5z"/>
		<path id="A34" class="st3" d="M422.6,151.5h6.9c1.7,0,3.1,1.4,3.1,3.1v6.9c0,1.7-1.4,3.1-3.1,3.1h-6.9c-1.7,0-3.1-1.4-3.1-3.1
			v-6.9C419.5,152.9,420.9,151.5,422.6,151.5z"/>
		<path id="A35" class="st3" d="M422.6,166h6.9c1.7,0,3.1,1.4,3.1,3.1v6.9c0,1.7-1.4,3.1-3.1,3.1h-6.9c-1.7,0-3.1-1.4-3.1-3.1v-6.9
			C419.5,167.4,420.9,166,422.6,166z"/>
		<path id="A36" class="st3" d="M422.6,180.5h6.9c1.7,0,3.1,1.4,3.1,3.1v6.9c0,1.7-1.4,3.1-3.1,3.1h-6.9c-1.7,0-3.1-1.4-3.1-3.1
			v-6.9C419.5,181.9,420.9,180.5,422.6,180.5z"/>
		<path id="A43" class="st3" d="M440.6,151.5h6.9c1.7,0,3.1,1.4,3.1,3.1v6.9c0,1.7-1.4,3.1-3.1,3.1h-6.9c-1.7,0-3.1-1.4-3.1-3.1
			v-6.9C437.5,152.9,438.9,151.5,440.6,151.5z"/>
		<path id="A44" class="st3" d="M440.6,166h6.9c1.7,0,3.1,1.4,3.1,3.1v6.9c0,1.7-1.4,3.1-3.1,3.1h-6.9c-1.7,0-3.1-1.4-3.1-3.1v-6.9
			C437.5,167.4,438.9,166,440.6,166z"/>
		<path id="A45" class="st3" d="M440.6,180.5h6.9c1.7,0,3.1,1.4,3.1,3.1v6.9c0,1.7-1.4,3.1-3.1,3.1h-6.9c-1.7,0-3.1-1.4-3.1-3.1
			v-6.9C437.5,181.9,438.9,180.5,440.6,180.5z"/>
	</g>
	<g id="B1">
		<path id="B01" class="st4" d="M517.6,36.5h6.9c1.7,0,3.1,1.4,3.1,3.1v6.9c0,1.7-1.4,3.1-3.1,3.1h-6.9c-1.7,0-3.1-1.4-3.1-3.1v-6.9
			C514.5,37.9,515.9,36.5,517.6,36.5z"/>
		<path id="B02" class="st4" d="M517.6,51h6.9c1.7,0,3.1,1.4,3.1,3.1V61c0,1.7-1.4,3.1-3.1,3.1h-6.9c-1.7,0-3.1-1.4-3.1-3.1v-6.9
			C514.5,52.4,515.9,51,517.6,51z"/>
		<path id="B03" class="st4" d="M517.6,65.5h6.9c1.7,0,3.1,1.4,3.1,3.1v6.9c0,1.7-1.4,3.1-3.1,3.1h-6.9c-1.7,0-3.1-1.4-3.1-3.1v-6.9
			C514.5,66.9,515.9,65.5,517.6,65.5z"/>
		<path id="B10" class="st4" d="M535.6,36.5h6.9c1.7,0,3.1,1.4,3.1,3.1v6.9c0,1.7-1.4,3.1-3.1,3.1h-6.9c-1.7,0-3.1-1.4-3.1-3.1v-6.9
			C532.5,37.9,533.9,36.5,535.6,36.5z"/>
		<path id="B11" class="st4" d="M535.6,51h6.9c1.7,0,3.1,1.4,3.1,3.1V61c0,1.7-1.4,3.1-3.1,3.1h-6.9c-1.7,0-3.1-1.4-3.1-3.1v-6.9
			C532.5,52.4,533.9,51,535.6,51z"/>
		<path id="B12" class="st4" d="M535.6,65.5h6.9c1.7,0,3.1,1.4,3.1,3.1v6.9c0,1.7-1.4,3.1-3.1,3.1h-6.9c-1.7,0-3.1-1.4-3.1-3.1v-6.9
			C532.5,66.9,533.9,65.5,535.6,65.5z"/>
		<path class="st4" d="M553.6,36.5h6.9c1.7,0,3.1,1.4,3.1,3.1v6.9c0,1.7-1.4,3.1-3.1,3.1h-6.9c-1.7,0-3.1-1.4-3.1-3.1v-6.9
			C550.5,37.9,551.9,36.5,553.6,36.5z"/>
		<path class="st4" d="M553.6,51h6.9c1.7,0,3.1,1.4,3.1,3.1V61c0,1.7-1.4,3.1-3.1,3.1h-6.9c-1.7,0-3.1-1.4-3.1-3.1v-6.9
			C550.5,52.4,551.9,51,553.6,51z"/>
		<path class="st4" d="M553.6,65.5h6.9c1.7,0,3.1,1.4,3.1,3.1v6.9c0,1.7-1.4,3.1-3.1,3.1h-6.9c-1.7,0-3.1-1.4-3.1-3.1v-6.9
			C550.5,66.9,551.9,65.5,553.6,65.5z"/>
		<path class="st4" d="M571.6,36.5h6.9c1.7,0,3.1,1.4,3.1,3.1v6.9c0,1.7-1.4,3.1-3.1,3.1h-6.9c-1.7,0-3.1-1.4-3.1-3.1v-6.9
			C568.5,37.9,569.9,36.5,571.6,36.5z"/>
		<path class="st4" d="M571.6,51h6.9c1.7,0,3.1,1.4,3.1,3.1V61c0,1.7-1.4,3.1-3.1,3.1h-6.9c-1.7,0-3.1-1.4-3.1-3.1v-6.9
			C568.5,52.4,569.9,51,571.6,51z"/>
		<path class="st4" d="M571.6,65.5h6.9c1.7,0,3.1,1.4,3.1,3.1v6.9c0,1.7-1.4,3.1-3.1,3.1h-6.9c-1.7,0-3.1-1.4-3.1-3.1v-6.9
			C568.5,66.9,569.9,65.5,571.6,65.5z"/>
		<path class="st4" d="M589.6,36.5h6.9c1.7,0,3.1,1.4,3.1,3.1v6.9c0,1.7-1.4,3.1-3.1,3.1h-6.9c-1.7,0-3.1-1.4-3.1-3.1v-6.9
			C586.5,37.9,587.9,36.5,589.6,36.5z"/>
		<path class="st4" d="M589.6,51h6.9c1.7,0,3.1,1.4,3.1,3.1V61c0,1.7-1.4,3.1-3.1,3.1h-6.9c-1.7,0-3.1-1.4-3.1-3.1v-6.9
			C586.5,52.4,587.9,51,589.6,51z"/>
		<path class="st4" d="M589.6,65.5h6.9c1.7,0,3.1,1.4,3.1,3.1v6.9c0,1.7-1.4,3.1-3.1,3.1h-6.9c-1.7,0-3.1-1.4-3.1-3.1v-6.9
			C586.5,66.9,587.9,65.5,589.6,65.5z"/>
		<path id="B04" class="st4" d="M517.6,94h6.9c1.7,0,3.1,1.4,3.1,3.1v6.9c0,1.7-1.4,3.1-3.1,3.1h-6.9c-1.7,0-3.1-1.4-3.1-3.1v-6.9
			C514.5,95.4,515.9,94,517.6,94z"/>
		<path id="B05" class="st4" d="M517.6,108.5h6.9c1.7,0,3.1,1.4,3.1,3.1v6.9c0,1.7-1.4,3.1-3.1,3.1h-6.9c-1.7,0-3.1-1.4-3.1-3.1
			v-6.9C514.5,109.9,515.9,108.5,517.6,108.5z"/>
		<path id="B06" class="st4" d="M517.6,123h6.9c1.7,0,3.1,1.4,3.1,3.1v6.9c0,1.7-1.4,3.1-3.1,3.1h-6.9c-1.7,0-3.1-1.4-3.1-3.1v-6.9
			C514.5,124.4,515.9,123,517.6,123z"/>
		<path id="B13" class="st4" d="M535.6,94h6.9c1.7,0,3.1,1.4,3.1,3.1v6.9c0,1.7-1.4,3.1-3.1,3.1h-6.9c-1.7,0-3.1-1.4-3.1-3.1v-6.9
			C532.5,95.4,533.9,94,535.6,94z"/>
		<path id="B14" class="st4" d="M535.6,108.5h6.9c1.7,0,3.1,1.4,3.1,3.1v6.9c0,1.7-1.4,3.1-3.1,3.1h-6.9c-1.7,0-3.1-1.4-3.1-3.1
			v-6.9C532.5,109.9,533.9,108.5,535.6,108.5z"/>
		<path id="B15" class="st4" d="M535.6,123h6.9c1.7,0,3.1,1.4,3.1,3.1v6.9c0,1.7-1.4,3.1-3.1,3.1h-6.9c-1.7,0-3.1-1.4-3.1-3.1v-6.9
			C532.5,124.4,533.9,123,535.6,123z"/>
		<path class="st4" d="M553.6,94h6.9c1.7,0,3.1,1.4,3.1,3.1v6.9c0,1.7-1.4,3.1-3.1,3.1h-6.9c-1.7,0-3.1-1.4-3.1-3.1v-6.9
			C550.5,95.4,551.9,94,553.6,94z"/>
		<path class="st4" d="M553.6,108.5h6.9c1.7,0,3.1,1.4,3.1,3.1v6.9c0,1.7-1.4,3.1-3.1,3.1h-6.9c-1.7,0-3.1-1.4-3.1-3.1v-6.9
			C550.5,109.9,551.9,108.5,553.6,108.5z"/>
		<path class="st4" d="M553.6,123h6.9c1.7,0,3.1,1.4,3.1,3.1v6.9c0,1.7-1.4,3.1-3.1,3.1h-6.9c-1.7,0-3.1-1.4-3.1-3.1v-6.9
			C550.5,124.4,551.9,123,553.6,123z"/>
		<path class="st4" d="M571.6,94h6.9c1.7,0,3.1,1.4,3.1,3.1v6.9c0,1.7-1.4,3.1-3.1,3.1h-6.9c-1.7,0-3.1-1.4-3.1-3.1v-6.9
			C568.5,95.4,569.9,94,571.6,94z"/>
		<path class="st4" d="M571.6,108.5h6.9c1.7,0,3.1,1.4,3.1,3.1v6.9c0,1.7-1.4,3.1-3.1,3.1h-6.9c-1.7,0-3.1-1.4-3.1-3.1v-6.9
			C568.5,109.9,569.9,108.5,571.6,108.5z"/>
		<path class="st4" d="M571.6,123h6.9c1.7,0,3.1,1.4,3.1,3.1v6.9c0,1.7-1.4,3.1-3.1,3.1h-6.9c-1.7,0-3.1-1.4-3.1-3.1v-6.9
			C568.5,124.4,569.9,123,571.6,123z"/>
		<path class="st4" d="M589.6,94h6.9c1.7,0,3.1,1.4,3.1,3.1v6.9c0,1.7-1.4,3.1-3.1,3.1h-6.9c-1.7,0-3.1-1.4-3.1-3.1v-6.9
			C586.5,95.4,587.9,94,589.6,94z"/>
		<path class="st4" d="M589.6,108.5h6.9c1.7,0,3.1,1.4,3.1,3.1v6.9c0,1.7-1.4,3.1-3.1,3.1h-6.9c-1.7,0-3.1-1.4-3.1-3.1v-6.9
			C586.5,109.9,587.9,108.5,589.6,108.5z"/>
		<path class="st4" d="M589.6,123h6.9c1.7,0,3.1,1.4,3.1,3.1v6.9c0,1.7-1.4,3.1-3.1,3.1h-6.9c-1.7,0-3.1-1.4-3.1-3.1v-6.9
			C586.5,124.4,587.9,123,589.6,123z"/>
		<path id="B07" class="st4" d="M517.6,151.5h6.9c1.7,0,3.1,1.4,3.1,3.1v6.9c0,1.7-1.4,3.1-3.1,3.1h-6.9c-1.7,0-3.1-1.4-3.1-3.1
			v-6.9C514.5,152.9,515.9,151.5,517.6,151.5z"/>
		<path id="B08" class="st4" d="M517.6,166h6.9c1.7,0,3.1,1.4,3.1,3.1v6.9c0,1.7-1.4,3.1-3.1,3.1h-6.9c-1.7,0-3.1-1.4-3.1-3.1v-6.9
			C514.5,167.4,515.9,166,517.6,166z"/>
		<path id="B09" class="st4" d="M517.6,180.5h6.9c1.7,0,3.1,1.4,3.1,3.1v6.9c0,1.7-1.4,3.1-3.1,3.1h-6.9c-1.7,0-3.1-1.4-3.1-3.1
			v-6.9C514.5,181.9,515.9,180.5,517.6,180.5z"/>
		<path id="B16" class="st4" d="M535.6,151.5h6.9c1.7,0,3.1,1.4,3.1,3.1v6.9c0,1.7-1.4,3.1-3.1,3.1h-6.9c-1.7,0-3.1-1.4-3.1-3.1
			v-6.9C532.5,152.9,533.9,151.5,535.6,151.5z"/>
		<path id="B17" class="st4" d="M535.6,166h6.9c1.7,0,3.1,1.4,3.1,3.1v6.9c0,1.7-1.4,3.1-3.1,3.1h-6.9c-1.7,0-3.1-1.4-3.1-3.1v-6.9
			C532.5,167.4,533.9,166,535.6,166z"/>
		<path id="B18" class="st4" d="M535.6,180.5h6.9c1.7,0,3.1,1.4,3.1,3.1v6.9c0,1.7-1.4,3.1-3.1,3.1h-6.9c-1.7,0-3.1-1.4-3.1-3.1
			v-6.9C532.5,181.9,533.9,180.5,535.6,180.5z"/>
		<path class="st4" d="M553.6,151.5h6.9c1.7,0,3.1,1.4,3.1,3.1v6.9c0,1.7-1.4,3.1-3.1,3.1h-6.9c-1.7,0-3.1-1.4-3.1-3.1v-6.9
			C550.5,152.9,551.9,151.5,553.6,151.5z"/>
		<path class="st4" d="M553.6,166h6.9c1.7,0,3.1,1.4,3.1,3.1v6.9c0,1.7-1.4,3.1-3.1,3.1h-6.9c-1.7,0-3.1-1.4-3.1-3.1v-6.9
			C550.5,167.4,551.9,166,553.6,166z"/>
		<path class="st4" d="M553.6,180.5h6.9c1.7,0,3.1,1.4,3.1,3.1v6.9c0,1.7-1.4,3.1-3.1,3.1h-6.9c-1.7,0-3.1-1.4-3.1-3.1v-6.9
			C550.5,181.9,551.9,180.5,553.6,180.5z"/>
		<path class="st4" d="M571.6,151.5h6.9c1.7,0,3.1,1.4,3.1,3.1v6.9c0,1.7-1.4,3.1-3.1,3.1h-6.9c-1.7,0-3.1-1.4-3.1-3.1v-6.9
			C568.5,152.9,569.9,151.5,571.6,151.5z"/>
		<path class="st4" d="M571.6,166h6.9c1.7,0,3.1,1.4,3.1,3.1v6.9c0,1.7-1.4,3.1-3.1,3.1h-6.9c-1.7,0-3.1-1.4-3.1-3.1v-6.9
			C568.5,167.4,569.9,166,571.6,166z"/>
		<path class="st4" d="M571.6,180.5h6.9c1.7,0,3.1,1.4,3.1,3.1v6.9c0,1.7-1.4,3.1-3.1,3.1h-6.9c-1.7,0-3.1-1.4-3.1-3.1v-6.9
			C568.5,181.9,569.9,180.5,571.6,180.5z"/>
		<path class="st4" d="M589.6,151.5h6.9c1.7,0,3.1,1.4,3.1,3.1v6.9c0,1.7-1.4,3.1-3.1,3.1h-6.9c-1.7,0-3.1-1.4-3.1-3.1v-6.9
			C586.5,152.9,587.9,151.5,589.6,151.5z"/>
		<path class="st4" d="M589.6,166h6.9c1.7,0,3.1,1.4,3.1,3.1v6.9c0,1.7-1.4,3.1-3.1,3.1h-6.9c-1.7,0-3.1-1.4-3.1-3.1v-6.9
			C586.5,167.4,587.9,166,589.6,166z"/>
		<path class="st4" d="M589.6,180.5h6.9c1.7,0,3.1,1.4,3.1,3.1v6.9c0,1.7-1.4,3.1-3.1,3.1h-6.9c-1.7,0-3.1-1.4-3.1-3.1v-6.9
			C586.5,181.9,587.9,180.5,589.6,180.5z"/>
		<path class="st4" d="M607.6,36.5h6.9c1.7,0,3.1,1.4,3.1,3.1v6.9c0,1.7-1.4,3.1-3.1,3.1h-6.9c-1.7,0-3.1-1.4-3.1-3.1v-6.9
			C604.5,37.9,605.9,36.5,607.6,36.5z"/>
		<path class="st4" d="M607.6,51h6.9c1.7,0,3.1,1.4,3.1,3.1V61c0,1.7-1.4,3.1-3.1,3.1h-6.9c-1.7,0-3.1-1.4-3.1-3.1v-6.9
			C604.5,52.4,605.9,51,607.6,51z"/>
		<path class="st4" d="M607.6,65.5h6.9c1.7,0,3.1,1.4,3.1,3.1v6.9c0,1.7-1.4,3.1-3.1,3.1h-6.9c-1.7,0-3.1-1.4-3.1-3.1v-6.9
			C604.5,66.9,605.9,65.5,607.6,65.5z"/>
		<path class="st4" d="M625.6,36.5h6.9c1.7,0,3.1,1.4,3.1,3.1v6.9c0,1.7-1.4,3.1-3.1,3.1h-6.9c-1.7,0-3.1-1.4-3.1-3.1v-6.9
			C622.5,37.9,623.9,36.5,625.6,36.5z"/>
		<path class="st4" d="M625.6,51h6.9c1.7,0,3.1,1.4,3.1,3.1V61c0,1.7-1.4,3.1-3.1,3.1h-6.9c-1.7,0-3.1-1.4-3.1-3.1v-6.9
			C622.5,52.4,623.9,51,625.6,51z"/>
		<path class="st4" d="M625.6,65.5h6.9c1.7,0,3.1,1.4,3.1,3.1v6.9c0,1.7-1.4,3.1-3.1,3.1h-6.9c-1.7,0-3.1-1.4-3.1-3.1v-6.9
			C622.5,66.9,623.9,65.5,625.6,65.5z"/>
		<path class="st4" d="M643.6,36.5h6.9c1.7,0,3.1,1.4,3.1,3.1v6.9c0,1.7-1.4,3.1-3.1,3.1h-6.9c-1.7,0-3.1-1.4-3.1-3.1v-6.9
			C640.5,37.9,641.9,36.5,643.6,36.5z"/>
		<path class="st4" d="M643.6,51h6.9c1.7,0,3.1,1.4,3.1,3.1V61c0,1.7-1.4,3.1-3.1,3.1h-6.9c-1.7,0-3.1-1.4-3.1-3.1v-6.9
			C640.5,52.4,641.9,51,643.6,51z"/>
		<path class="st4" d="M643.6,65.5h6.9c1.7,0,3.1,1.4,3.1,3.1v6.9c0,1.7-1.4,3.1-3.1,3.1h-6.9c-1.7,0-3.1-1.4-3.1-3.1v-6.9
			C640.5,66.9,641.9,65.5,643.6,65.5z"/>
		<path class="st4" d="M661.6,36.5h6.9c1.7,0,3.1,1.4,3.1,3.1v6.9c0,1.7-1.4,3.1-3.1,3.1h-6.9c-1.7,0-3.1-1.4-3.1-3.1v-6.9
			C658.5,37.9,659.9,36.5,661.6,36.5z"/>
		<path class="st4" d="M661.6,51h6.9c1.7,0,3.1,1.4,3.1,3.1V61c0,1.7-1.4,3.1-3.1,3.1h-6.9c-1.7,0-3.1-1.4-3.1-3.1v-6.9
			C658.5,52.4,659.9,51,661.6,51z"/>
		<path class="st4" d="M661.6,65.5h6.9c1.7,0,3.1,1.4,3.1,3.1v6.9c0,1.7-1.4,3.1-3.1,3.1h-6.9c-1.7,0-3.1-1.4-3.1-3.1v-6.9
			C658.5,66.9,659.9,65.5,661.6,65.5z"/>
		<path class="st4" d="M607.6,94h6.9c1.7,0,3.1,1.4,3.1,3.1v6.9c0,1.7-1.4,3.1-3.1,3.1h-6.9c-1.7,0-3.1-1.4-3.1-3.1v-6.9
			C604.5,95.4,605.9,94,607.6,94z"/>
		<path class="st4" d="M607.6,108.5h6.9c1.7,0,3.1,1.4,3.1,3.1v6.9c0,1.7-1.4,3.1-3.1,3.1h-6.9c-1.7,0-3.1-1.4-3.1-3.1v-6.9
			C604.5,109.9,605.9,108.5,607.6,108.5z"/>
		<path class="st4" d="M607.6,123h6.9c1.7,0,3.1,1.4,3.1,3.1v6.9c0,1.7-1.4,3.1-3.1,3.1h-6.9c-1.7,0-3.1-1.4-3.1-3.1v-6.9
			C604.5,124.4,605.9,123,607.6,123z"/>
		<path class="st4" d="M625.6,94h6.9c1.7,0,3.1,1.4,3.1,3.1v6.9c0,1.7-1.4,3.1-3.1,3.1h-6.9c-1.7,0-3.1-1.4-3.1-3.1v-6.9
			C622.5,95.4,623.9,94,625.6,94z"/>
		<path class="st4" d="M625.6,108.5h6.9c1.7,0,3.1,1.4,3.1,3.1v6.9c0,1.7-1.4,3.1-3.1,3.1h-6.9c-1.7,0-3.1-1.4-3.1-3.1v-6.9
			C622.5,109.9,623.9,108.5,625.6,108.5z"/>
		<path class="st4" d="M625.6,123h6.9c1.7,0,3.1,1.4,3.1,3.1v6.9c0,1.7-1.4,3.1-3.1,3.1h-6.9c-1.7,0-3.1-1.4-3.1-3.1v-6.9
			C622.5,124.4,623.9,123,625.6,123z"/>
		<path class="st4" d="M643.6,94h6.9c1.7,0,3.1,1.4,3.1,3.1v6.9c0,1.7-1.4,3.1-3.1,3.1h-6.9c-1.7,0-3.1-1.4-3.1-3.1v-6.9
			C640.5,95.4,641.9,94,643.6,94z"/>
		<path class="st4" d="M643.6,108.5h6.9c1.7,0,3.1,1.4,3.1,3.1v6.9c0,1.7-1.4,3.1-3.1,3.1h-6.9c-1.7,0-3.1-1.4-3.1-3.1v-6.9
			C640.5,109.9,641.9,108.5,643.6,108.5z"/>
		<path class="st4" d="M643.6,123h6.9c1.7,0,3.1,1.4,3.1,3.1v6.9c0,1.7-1.4,3.1-3.1,3.1h-6.9c-1.7,0-3.1-1.4-3.1-3.1v-6.9
			C640.5,124.4,641.9,123,643.6,123z"/>
		<path class="st4" d="M661.6,94h6.9c1.7,0,3.1,1.4,3.1,3.1v6.9c0,1.7-1.4,3.1-3.1,3.1h-6.9c-1.7,0-3.1-1.4-3.1-3.1v-6.9
			C658.5,95.4,659.9,94,661.6,94z"/>
		<path class="st4" d="M661.6,108.5h6.9c1.7,0,3.1,1.4,3.1,3.1v6.9c0,1.7-1.4,3.1-3.1,3.1h-6.9c-1.7,0-3.1-1.4-3.1-3.1v-6.9
			C658.5,109.9,659.9,108.5,661.6,108.5z"/>
		<path class="st4" d="M661.6,123h6.9c1.7,0,3.1,1.4,3.1,3.1v6.9c0,1.7-1.4,3.1-3.1,3.1h-6.9c-1.7,0-3.1-1.4-3.1-3.1v-6.9
			C658.5,124.4,659.9,123,661.6,123z"/>
		<path class="st4" d="M607.6,151.5h6.9c1.7,0,3.1,1.4,3.1,3.1v6.9c0,1.7-1.4,3.1-3.1,3.1h-6.9c-1.7,0-3.1-1.4-3.1-3.1v-6.9
			C604.5,152.9,605.9,151.5,607.6,151.5z"/>
		<path class="st4" d="M607.6,166h6.9c1.7,0,3.1,1.4,3.1,3.1v6.9c0,1.7-1.4,3.1-3.1,3.1h-6.9c-1.7,0-3.1-1.4-3.1-3.1v-6.9
			C604.5,167.4,605.9,166,607.6,166z"/>
		<path class="st4" d="M607.6,180.5h6.9c1.7,0,3.1,1.4,3.1,3.1v6.9c0,1.7-1.4,3.1-3.1,3.1h-6.9c-1.7,0-3.1-1.4-3.1-3.1v-6.9
			C604.5,181.9,605.9,180.5,607.6,180.5z"/>
		<path class="st4" d="M625.6,151.5h6.9c1.7,0,3.1,1.4,3.1,3.1v6.9c0,1.7-1.4,3.1-3.1,3.1h-6.9c-1.7,0-3.1-1.4-3.1-3.1v-6.9
			C622.5,152.9,623.9,151.5,625.6,151.5z"/>
		<path class="st4" d="M625.6,166h6.9c1.7,0,3.1,1.4,3.1,3.1v6.9c0,1.7-1.4,3.1-3.1,3.1h-6.9c-1.7,0-3.1-1.4-3.1-3.1v-6.9
			C622.5,167.4,623.9,166,625.6,166z"/>
		<path class="st4" d="M625.6,180.5h6.9c1.7,0,3.1,1.4,3.1,3.1v6.9c0,1.7-1.4,3.1-3.1,3.1h-6.9c-1.7,0-3.1-1.4-3.1-3.1v-6.9
			C622.5,181.9,623.9,180.5,625.6,180.5z"/>
		<path class="st4" d="M643.6,151.5h6.9c1.7,0,3.1,1.4,3.1,3.1v6.9c0,1.7-1.4,3.1-3.1,3.1h-6.9c-1.7,0-3.1-1.4-3.1-3.1v-6.9
			C640.5,152.9,641.9,151.5,643.6,151.5z"/>
		<path class="st4" d="M643.6,166h6.9c1.7,0,3.1,1.4,3.1,3.1v6.9c0,1.7-1.4,3.1-3.1,3.1h-6.9c-1.7,0-3.1-1.4-3.1-3.1v-6.9
			C640.5,167.4,641.9,166,643.6,166z"/>
		<path class="st4" d="M643.6,180.5h6.9c1.7,0,3.1,1.4,3.1,3.1v6.9c0,1.7-1.4,3.1-3.1,3.1h-6.9c-1.7,0-3.1-1.4-3.1-3.1v-6.9
			C640.5,181.9,641.9,180.5,643.6,180.5z"/>
		<path class="st4" d="M661.6,151.5h6.9c1.7,0,3.1,1.4,3.1,3.1v6.9c0,1.7-1.4,3.1-3.1,3.1h-6.9c-1.7,0-3.1-1.4-3.1-3.1v-6.9
			C658.5,152.9,659.9,151.5,661.6,151.5z"/>
		<path class="st4" d="M661.6,166h6.9c1.7,0,3.1,1.4,3.1,3.1v6.9c0,1.7-1.4,3.1-3.1,3.1h-6.9c-1.7,0-3.1-1.4-3.1-3.1v-6.9
			C658.5,167.4,659.9,166,661.6,166z"/>
		<path class="st4" d="M661.6,180.5h6.9c1.7,0,3.1,1.4,3.1,3.1v6.9c0,1.7-1.4,3.1-3.1,3.1h-6.9c-1.7,0-3.1-1.4-3.1-3.1v-6.9
			C658.5,181.9,659.9,180.5,661.6,180.5z"/>
	</g>
	<g id="B2">
		<path class="st4" d="M678.6,36.5h6.9c1.7,0,3.1,1.4,3.1,3.1v6.9c0,1.7-1.4,3.1-3.1,3.1h-6.9c-1.7,0-3.1-1.4-3.1-3.1v-6.9
			C675.5,37.9,676.9,36.5,678.6,36.5z"/>
		<path class="st4" d="M678.6,51h6.9c1.7,0,3.1,1.4,3.1,3.1V61c0,1.7-1.4,3.1-3.1,3.1h-6.9c-1.7,0-3.1-1.4-3.1-3.1v-6.9
			C675.5,52.4,676.9,51,678.6,51z"/>
		<path class="st4" d="M678.6,65.5h6.9c1.7,0,3.1,1.4,3.1,3.1v6.9c0,1.7-1.4,3.1-3.1,3.1h-6.9c-1.7,0-3.1-1.4-3.1-3.1v-6.9
			C675.5,66.9,676.9,65.5,678.6,65.5z"/>
		<path class="st4" d="M696.6,36.5h6.9c1.7,0,3.1,1.4,3.1,3.1v6.9c0,1.7-1.4,3.1-3.1,3.1h-6.9c-1.7,0-3.1-1.4-3.1-3.1v-6.9
			C693.5,37.9,694.9,36.5,696.6,36.5z"/>
		<path class="st4" d="M696.6,51h6.9c1.7,0,3.1,1.4,3.1,3.1V61c0,1.7-1.4,3.1-3.1,3.1h-6.9c-1.7,0-3.1-1.4-3.1-3.1v-6.9
			C693.5,52.4,694.9,51,696.6,51z"/>
		<path class="st4" d="M696.6,65.5h6.9c1.7,0,3.1,1.4,3.1,3.1v6.9c0,1.7-1.4,3.1-3.1,3.1h-6.9c-1.7,0-3.1-1.4-3.1-3.1v-6.9
			C693.5,66.9,694.9,65.5,696.6,65.5z"/>
		<path class="st4" d="M714.6,36.5h6.9c1.7,0,3.1,1.4,3.1,3.1v6.9c0,1.7-1.4,3.1-3.1,3.1h-6.9c-1.7,0-3.1-1.4-3.1-3.1v-6.9
			C711.5,37.9,712.9,36.5,714.6,36.5z"/>
		<path class="st4" d="M714.6,51h6.9c1.7,0,3.1,1.4,3.1,3.1V61c0,1.7-1.4,3.1-3.1,3.1h-6.9c-1.7,0-3.1-1.4-3.1-3.1v-6.9
			C711.5,52.4,712.9,51,714.6,51z"/>
		<path class="st4" d="M714.6,65.5h6.9c1.7,0,3.1,1.4,3.1,3.1v6.9c0,1.7-1.4,3.1-3.1,3.1h-6.9c-1.7,0-3.1-1.4-3.1-3.1v-6.9
			C711.5,66.9,712.9,65.5,714.6,65.5z"/>
		<path class="st4" d="M732.6,36.5h6.9c1.7,0,3.1,1.4,3.1,3.1v6.9c0,1.7-1.4,3.1-3.1,3.1h-6.9c-1.7,0-3.1-1.4-3.1-3.1v-6.9
			C729.5,37.9,730.9,36.5,732.6,36.5z"/>
		<path class="st4" d="M732.6,51h6.9c1.7,0,3.1,1.4,3.1,3.1V61c0,1.7-1.4,3.1-3.1,3.1h-6.9c-1.7,0-3.1-1.4-3.1-3.1v-6.9
			C729.5,52.4,730.9,51,732.6,51z"/>
		<path class="st4" d="M732.6,65.5h6.9c1.7,0,3.1,1.4,3.1,3.1v6.9c0,1.7-1.4,3.1-3.1,3.1h-6.9c-1.7,0-3.1-1.4-3.1-3.1v-6.9
			C729.5,66.9,730.9,65.5,732.6,65.5z"/>
		<path class="st4" d="M750.6,36.5h6.9c1.7,0,3.1,1.4,3.1,3.1v6.9c0,1.7-1.4,3.1-3.1,3.1h-6.9c-1.7,0-3.1-1.4-3.1-3.1v-6.9
			C747.5,37.9,748.9,36.5,750.6,36.5z"/>
		<path class="st4" d="M750.6,51h6.9c1.7,0,3.1,1.4,3.1,3.1V61c0,1.7-1.4,3.1-3.1,3.1h-6.9c-1.7,0-3.1-1.4-3.1-3.1v-6.9
			C747.5,52.4,748.9,51,750.6,51z"/>
		<path class="st4" d="M750.6,65.5h6.9c1.7,0,3.1,1.4,3.1,3.1v6.9c0,1.7-1.4,3.1-3.1,3.1h-6.9c-1.7,0-3.1-1.4-3.1-3.1v-6.9
			C747.5,66.9,748.9,65.5,750.6,65.5z"/>
		<path class="st4" d="M678.6,94h6.9c1.7,0,3.1,1.4,3.1,3.1v6.9c0,1.7-1.4,3.1-3.1,3.1h-6.9c-1.7,0-3.1-1.4-3.1-3.1v-6.9
			C675.5,95.4,676.9,94,678.6,94z"/>
		<path class="st4" d="M678.6,108.5h6.9c1.7,0,3.1,1.4,3.1,3.1v6.9c0,1.7-1.4,3.1-3.1,3.1h-6.9c-1.7,0-3.1-1.4-3.1-3.1v-6.9
			C675.5,109.9,676.9,108.5,678.6,108.5z"/>
		<path class="st4" d="M678.6,123h6.9c1.7,0,3.1,1.4,3.1,3.1v6.9c0,1.7-1.4,3.1-3.1,3.1h-6.9c-1.7,0-3.1-1.4-3.1-3.1v-6.9
			C675.5,124.4,676.9,123,678.6,123z"/>
		<path class="st4" d="M696.6,94h6.9c1.7,0,3.1,1.4,3.1,3.1v6.9c0,1.7-1.4,3.1-3.1,3.1h-6.9c-1.7,0-3.1-1.4-3.1-3.1v-6.9
			C693.5,95.4,694.9,94,696.6,94z"/>
		<path class="st4" d="M696.6,108.5h6.9c1.7,0,3.1,1.4,3.1,3.1v6.9c0,1.7-1.4,3.1-3.1,3.1h-6.9c-1.7,0-3.1-1.4-3.1-3.1v-6.9
			C693.5,109.9,694.9,108.5,696.6,108.5z"/>
		<path class="st4" d="M696.6,123h6.9c1.7,0,3.1,1.4,3.1,3.1v6.9c0,1.7-1.4,3.1-3.1,3.1h-6.9c-1.7,0-3.1-1.4-3.1-3.1v-6.9
			C693.5,124.4,694.9,123,696.6,123z"/>
		<path class="st4" d="M714.6,94h6.9c1.7,0,3.1,1.4,3.1,3.1v6.9c0,1.7-1.4,3.1-3.1,3.1h-6.9c-1.7,0-3.1-1.4-3.1-3.1v-6.9
			C711.5,95.4,712.9,94,714.6,94z"/>
		<path class="st4" d="M714.6,108.5h6.9c1.7,0,3.1,1.4,3.1,3.1v6.9c0,1.7-1.4,3.1-3.1,3.1h-6.9c-1.7,0-3.1-1.4-3.1-3.1v-6.9
			C711.5,109.9,712.9,108.5,714.6,108.5z"/>
		<path class="st4" d="M714.6,123h6.9c1.7,0,3.1,1.4,3.1,3.1v6.9c0,1.7-1.4,3.1-3.1,3.1h-6.9c-1.7,0-3.1-1.4-3.1-3.1v-6.9
			C711.5,124.4,712.9,123,714.6,123z"/>
		<path class="st4" d="M732.6,94h6.9c1.7,0,3.1,1.4,3.1,3.1v6.9c0,1.7-1.4,3.1-3.1,3.1h-6.9c-1.7,0-3.1-1.4-3.1-3.1v-6.9
			C729.5,95.4,730.9,94,732.6,94z"/>
		<path class="st4" d="M732.6,108.5h6.9c1.7,0,3.1,1.4,3.1,3.1v6.9c0,1.7-1.4,3.1-3.1,3.1h-6.9c-1.7,0-3.1-1.4-3.1-3.1v-6.9
			C729.5,109.9,730.9,108.5,732.6,108.5z"/>
		<path class="st4" d="M732.6,123h6.9c1.7,0,3.1,1.4,3.1,3.1v6.9c0,1.7-1.4,3.1-3.1,3.1h-6.9c-1.7,0-3.1-1.4-3.1-3.1v-6.9
			C729.5,124.4,730.9,123,732.6,123z"/>
		<path class="st4" d="M750.6,94h6.9c1.7,0,3.1,1.4,3.1,3.1v6.9c0,1.7-1.4,3.1-3.1,3.1h-6.9c-1.7,0-3.1-1.4-3.1-3.1v-6.9
			C747.5,95.4,748.9,94,750.6,94z"/>
		<path class="st4" d="M750.6,108.5h6.9c1.7,0,3.1,1.4,3.1,3.1v6.9c0,1.7-1.4,3.1-3.1,3.1h-6.9c-1.7,0-3.1-1.4-3.1-3.1v-6.9
			C747.5,109.9,748.9,108.5,750.6,108.5z"/>
		<path class="st4" d="M750.6,123h6.9c1.7,0,3.1,1.4,3.1,3.1v6.9c0,1.7-1.4,3.1-3.1,3.1h-6.9c-1.7,0-3.1-1.4-3.1-3.1v-6.9
			C747.5,124.4,748.9,123,750.6,123z"/>
		<path class="st4" d="M678.6,151.5h6.9c1.7,0,3.1,1.4,3.1,3.1v6.9c0,1.7-1.4,3.1-3.1,3.1h-6.9c-1.7,0-3.1-1.4-3.1-3.1v-6.9
			C675.5,152.9,676.9,151.5,678.6,151.5z"/>
		<path class="st4" d="M678.6,166h6.9c1.7,0,3.1,1.4,3.1,3.1v6.9c0,1.7-1.4,3.1-3.1,3.1h-6.9c-1.7,0-3.1-1.4-3.1-3.1v-6.9
			C675.5,167.4,676.9,166,678.6,166z"/>
		<path class="st4" d="M678.6,180.5h6.9c1.7,0,3.1,1.4,3.1,3.1v6.9c0,1.7-1.4,3.1-3.1,3.1h-6.9c-1.7,0-3.1-1.4-3.1-3.1v-6.9
			C675.5,181.9,676.9,180.5,678.6,180.5z"/>
		<path class="st4" d="M696.6,151.5h6.9c1.7,0,3.1,1.4,3.1,3.1v6.9c0,1.7-1.4,3.1-3.1,3.1h-6.9c-1.7,0-3.1-1.4-3.1-3.1v-6.9
			C693.5,152.9,694.9,151.5,696.6,151.5z"/>
		<path class="st4" d="M696.6,166h6.9c1.7,0,3.1,1.4,3.1,3.1v6.9c0,1.7-1.4,3.1-3.1,3.1h-6.9c-1.7,0-3.1-1.4-3.1-3.1v-6.9
			C693.5,167.4,694.9,166,696.6,166z"/>
		<path class="st4" d="M696.6,180.5h6.9c1.7,0,3.1,1.4,3.1,3.1v6.9c0,1.7-1.4,3.1-3.1,3.1h-6.9c-1.7,0-3.1-1.4-3.1-3.1v-6.9
			C693.5,181.9,694.9,180.5,696.6,180.5z"/>
		<path class="st4" d="M714.6,151.5h6.9c1.7,0,3.1,1.4,3.1,3.1v6.9c0,1.7-1.4,3.1-3.1,3.1h-6.9c-1.7,0-3.1-1.4-3.1-3.1v-6.9
			C711.5,152.9,712.9,151.5,714.6,151.5z"/>
		<path class="st4" d="M714.6,166h6.9c1.7,0,3.1,1.4,3.1,3.1v6.9c0,1.7-1.4,3.1-3.1,3.1h-6.9c-1.7,0-3.1-1.4-3.1-3.1v-6.9
			C711.5,167.4,712.9,166,714.6,166z"/>
		<path class="st4" d="M714.6,180.5h6.9c1.7,0,3.1,1.4,3.1,3.1v6.9c0,1.7-1.4,3.1-3.1,3.1h-6.9c-1.7,0-3.1-1.4-3.1-3.1v-6.9
			C711.5,181.9,712.9,180.5,714.6,180.5z"/>
		<path class="st4" d="M732.6,151.5h6.9c1.7,0,3.1,1.4,3.1,3.1v6.9c0,1.7-1.4,3.1-3.1,3.1h-6.9c-1.7,0-3.1-1.4-3.1-3.1v-6.9
			C729.5,152.9,730.9,151.5,732.6,151.5z"/>
		<path class="st4" d="M732.6,166h6.9c1.7,0,3.1,1.4,3.1,3.1v6.9c0,1.7-1.4,3.1-3.1,3.1h-6.9c-1.7,0-3.1-1.4-3.1-3.1v-6.9
			C729.5,167.4,730.9,166,732.6,166z"/>
		<path class="st4" d="M732.6,180.5h6.9c1.7,0,3.1,1.4,3.1,3.1v6.9c0,1.7-1.4,3.1-3.1,3.1h-6.9c-1.7,0-3.1-1.4-3.1-3.1v-6.9
			C729.5,181.9,730.9,180.5,732.6,180.5z"/>
		<path class="st4" d="M750.6,151.5h6.9c1.7,0,3.1,1.4,3.1,3.1v6.9c0,1.7-1.4,3.1-3.1,3.1h-6.9c-1.7,0-3.1-1.4-3.1-3.1v-6.9
			C747.5,152.9,748.9,151.5,750.6,151.5z"/>
		<path class="st4" d="M750.6,166h6.9c1.7,0,3.1,1.4,3.1,3.1v6.9c0,1.7-1.4,3.1-3.1,3.1h-6.9c-1.7,0-3.1-1.4-3.1-3.1v-6.9
			C747.5,167.4,748.9,166,750.6,166z"/>
		<path class="st4" d="M750.6,180.5h6.9c1.7,0,3.1,1.4,3.1,3.1v6.9c0,1.7-1.4,3.1-3.1,3.1h-6.9c-1.7,0-3.1-1.4-3.1-3.1v-6.9
			C747.5,181.9,748.9,180.5,750.6,180.5z"/>
		<path class="st4" d="M768.6,36.5h6.9c1.7,0,3.1,1.4,3.1,3.1v6.9c0,1.7-1.4,3.1-3.1,3.1h-6.9c-1.7,0-3.1-1.4-3.1-3.1v-6.9
			C765.5,37.9,766.9,36.5,768.6,36.5z"/>
		<path class="st4" d="M768.6,51h6.9c1.7,0,3.1,1.4,3.1,3.1V61c0,1.7-1.4,3.1-3.1,3.1h-6.9c-1.7,0-3.1-1.4-3.1-3.1v-6.9
			C765.5,52.4,766.9,51,768.6,51z"/>
		<path class="st4" d="M768.6,65.5h6.9c1.7,0,3.1,1.4,3.1,3.1v6.9c0,1.7-1.4,3.1-3.1,3.1h-6.9c-1.7,0-3.1-1.4-3.1-3.1v-6.9
			C765.5,66.9,766.9,65.5,768.6,65.5z"/>
		<path class="st4" d="M786.6,36.5h6.9c1.7,0,3.1,1.4,3.1,3.1v6.9c0,1.7-1.4,3.1-3.1,3.1h-6.9c-1.7,0-3.1-1.4-3.1-3.1v-6.9
			C783.5,37.9,784.9,36.5,786.6,36.5z"/>
		<path class="st4" d="M786.6,51h6.9c1.7,0,3.1,1.4,3.1,3.1V61c0,1.7-1.4,3.1-3.1,3.1h-6.9c-1.7,0-3.1-1.4-3.1-3.1v-6.9
			C783.5,52.4,784.9,51,786.6,51z"/>
		<path class="st4" d="M786.6,65.5h6.9c1.7,0,3.1,1.4,3.1,3.1v6.9c0,1.7-1.4,3.1-3.1,3.1h-6.9c-1.7,0-3.1-1.4-3.1-3.1v-6.9
			C783.5,66.9,784.9,65.5,786.6,65.5z"/>
		<path class="st4" d="M804.6,36.5h6.9c1.7,0,3.1,1.4,3.1,3.1v6.9c0,1.7-1.4,3.1-3.1,3.1h-6.9c-1.7,0-3.1-1.4-3.1-3.1v-6.9
			C801.5,37.9,802.9,36.5,804.6,36.5z"/>
		<path class="st4" d="M804.6,51h6.9c1.7,0,3.1,1.4,3.1,3.1V61c0,1.7-1.4,3.1-3.1,3.1h-6.9c-1.7,0-3.1-1.4-3.1-3.1v-6.9
			C801.5,52.4,802.9,51,804.6,51z"/>
		<path class="st4" d="M804.6,65.5h6.9c1.7,0,3.1,1.4,3.1,3.1v6.9c0,1.7-1.4,3.1-3.1,3.1h-6.9c-1.7,0-3.1-1.4-3.1-3.1v-6.9
			C801.5,66.9,802.9,65.5,804.6,65.5z"/>
		<path class="st4" d="M822.6,36.5h6.9c1.7,0,3.1,1.4,3.1,3.1v6.9c0,1.7-1.4,3.1-3.1,3.1h-6.9c-1.7,0-3.1-1.4-3.1-3.1v-6.9
			C819.5,37.9,820.9,36.5,822.6,36.5z"/>
		<path class="st4" d="M822.6,51h6.9c1.7,0,3.1,1.4,3.1,3.1V61c0,1.7-1.4,3.1-3.1,3.1h-6.9c-1.7,0-3.1-1.4-3.1-3.1v-6.9
			C819.5,52.4,820.9,51,822.6,51z"/>
		<path class="st4" d="M822.6,65.5h6.9c1.7,0,3.1,1.4,3.1,3.1v6.9c0,1.7-1.4,3.1-3.1,3.1h-6.9c-1.7,0-3.1-1.4-3.1-3.1v-6.9
			C819.5,66.9,820.9,65.5,822.6,65.5z"/>
		<path class="st4" d="M768.6,94h6.9c1.7,0,3.1,1.4,3.1,3.1v6.9c0,1.7-1.4,3.1-3.1,3.1h-6.9c-1.7,0-3.1-1.4-3.1-3.1v-6.9
			C765.5,95.4,766.9,94,768.6,94z"/>
		<path class="st4" d="M768.6,108.5h6.9c1.7,0,3.1,1.4,3.1,3.1v6.9c0,1.7-1.4,3.1-3.1,3.1h-6.9c-1.7,0-3.1-1.4-3.1-3.1v-6.9
			C765.5,109.9,766.9,108.5,768.6,108.5z"/>
		<path class="st4" d="M768.6,123h6.9c1.7,0,3.1,1.4,3.1,3.1v6.9c0,1.7-1.4,3.1-3.1,3.1h-6.9c-1.7,0-3.1-1.4-3.1-3.1v-6.9
			C765.5,124.4,766.9,123,768.6,123z"/>
		<path class="st4" d="M786.6,94h6.9c1.7,0,3.1,1.4,3.1,3.1v6.9c0,1.7-1.4,3.1-3.1,3.1h-6.9c-1.7,0-3.1-1.4-3.1-3.1v-6.9
			C783.5,95.4,784.9,94,786.6,94z"/>
		<path class="st4" d="M786.6,108.5h6.9c1.7,0,3.1,1.4,3.1,3.1v6.9c0,1.7-1.4,3.1-3.1,3.1h-6.9c-1.7,0-3.1-1.4-3.1-3.1v-6.9
			C783.5,109.9,784.9,108.5,786.6,108.5z"/>
		<path class="st4" d="M786.6,123h6.9c1.7,0,3.1,1.4,3.1,3.1v6.9c0,1.7-1.4,3.1-3.1,3.1h-6.9c-1.7,0-3.1-1.4-3.1-3.1v-6.9
			C783.5,124.4,784.9,123,786.6,123z"/>
		<path class="st4" d="M804.6,94h6.9c1.7,0,3.1,1.4,3.1,3.1v6.9c0,1.7-1.4,3.1-3.1,3.1h-6.9c-1.7,0-3.1-1.4-3.1-3.1v-6.9
			C801.5,95.4,802.9,94,804.6,94z"/>
		<path class="st4" d="M804.6,108.5h6.9c1.7,0,3.1,1.4,3.1,3.1v6.9c0,1.7-1.4,3.1-3.1,3.1h-6.9c-1.7,0-3.1-1.4-3.1-3.1v-6.9
			C801.5,109.9,802.9,108.5,804.6,108.5z"/>
		<path class="st4" d="M804.6,123h6.9c1.7,0,3.1,1.4,3.1,3.1v6.9c0,1.7-1.4,3.1-3.1,3.1h-6.9c-1.7,0-3.1-1.4-3.1-3.1v-6.9
			C801.5,124.4,802.9,123,804.6,123z"/>
		<path class="st4" d="M822.6,94h6.9c1.7,0,3.1,1.4,3.1,3.1v6.9c0,1.7-1.4,3.1-3.1,3.1h-6.9c-1.7,0-3.1-1.4-3.1-3.1v-6.9
			C819.5,95.4,820.9,94,822.6,94z"/>
		<path class="st4" d="M822.6,108.5h6.9c1.7,0,3.1,1.4,3.1,3.1v6.9c0,1.7-1.4,3.1-3.1,3.1h-6.9c-1.7,0-3.1-1.4-3.1-3.1v-6.9
			C819.5,109.9,820.9,108.5,822.6,108.5z"/>
		<path class="st4" d="M822.6,123h6.9c1.7,0,3.1,1.4,3.1,3.1v6.9c0,1.7-1.4,3.1-3.1,3.1h-6.9c-1.7,0-3.1-1.4-3.1-3.1v-6.9
			C819.5,124.4,820.9,123,822.6,123z"/>
		<path class="st4" d="M768.6,151.5h6.9c1.7,0,3.1,1.4,3.1,3.1v6.9c0,1.7-1.4,3.1-3.1,3.1h-6.9c-1.7,0-3.1-1.4-3.1-3.1v-6.9
			C765.5,152.9,766.9,151.5,768.6,151.5z"/>
		<path class="st4" d="M768.6,166h6.9c1.7,0,3.1,1.4,3.1,3.1v6.9c0,1.7-1.4,3.1-3.1,3.1h-6.9c-1.7,0-3.1-1.4-3.1-3.1v-6.9
			C765.5,167.4,766.9,166,768.6,166z"/>
		<path class="st4" d="M768.6,180.5h6.9c1.7,0,3.1,1.4,3.1,3.1v6.9c0,1.7-1.4,3.1-3.1,3.1h-6.9c-1.7,0-3.1-1.4-3.1-3.1v-6.9
			C765.5,181.9,766.9,180.5,768.6,180.5z"/>
		<path class="st4" d="M786.6,151.5h6.9c1.7,0,3.1,1.4,3.1,3.1v6.9c0,1.7-1.4,3.1-3.1,3.1h-6.9c-1.7,0-3.1-1.4-3.1-3.1v-6.9
			C783.5,152.9,784.9,151.5,786.6,151.5z"/>
		<path class="st4" d="M786.6,166h6.9c1.7,0,3.1,1.4,3.1,3.1v6.9c0,1.7-1.4,3.1-3.1,3.1h-6.9c-1.7,0-3.1-1.4-3.1-3.1v-6.9
			C783.5,167.4,784.9,166,786.6,166z"/>
		<path class="st4" d="M786.6,180.5h6.9c1.7,0,3.1,1.4,3.1,3.1v6.9c0,1.7-1.4,3.1-3.1,3.1h-6.9c-1.7,0-3.1-1.4-3.1-3.1v-6.9
			C783.5,181.9,784.9,180.5,786.6,180.5z"/>
		<path class="st4" d="M804.6,151.5h6.9c1.7,0,3.1,1.4,3.1,3.1v6.9c0,1.7-1.4,3.1-3.1,3.1h-6.9c-1.7,0-3.1-1.4-3.1-3.1v-6.9
			C801.5,152.9,802.9,151.5,804.6,151.5z"/>
		<path class="st4" d="M804.6,166h6.9c1.7,0,3.1,1.4,3.1,3.1v6.9c0,1.7-1.4,3.1-3.1,3.1h-6.9c-1.7,0-3.1-1.4-3.1-3.1v-6.9
			C801.5,167.4,802.9,166,804.6,166z"/>
		<path class="st4" d="M804.6,180.5h6.9c1.7,0,3.1,1.4,3.1,3.1v6.9c0,1.7-1.4,3.1-3.1,3.1h-6.9c-1.7,0-3.1-1.4-3.1-3.1v-6.9
			C801.5,181.9,802.9,180.5,804.6,180.5z"/>
		<path class="st4" d="M822.6,151.5h6.9c1.7,0,3.1,1.4,3.1,3.1v6.9c0,1.7-1.4,3.1-3.1,3.1h-6.9c-1.7,0-3.1-1.4-3.1-3.1v-6.9
			C819.5,152.9,820.9,151.5,822.6,151.5z"/>
		<path class="st4" d="M822.6,166h6.9c1.7,0,3.1,1.4,3.1,3.1v6.9c0,1.7-1.4,3.1-3.1,3.1h-6.9c-1.7,0-3.1-1.4-3.1-3.1v-6.9
			C819.5,167.4,820.9,166,822.6,166z"/>
		<path class="st4" d="M822.6,180.5h6.9c1.7,0,3.1,1.4,3.1,3.1v6.9c0,1.7-1.4,3.1-3.1,3.1h-6.9c-1.7,0-3.1-1.4-3.1-3.1v-6.9
			C819.5,181.9,820.9,180.5,822.6,180.5z"/>
	</g>
</g>
<g id="_x31_1c479b3-b0d1-49bc-bbf7-6a35306f9f1b">
	<path class="st5" d="M189.9,155.3H206c1.4,0,2.5,1.1,2.5,2.5v29.5c0,1.4-1.1,2.5-2.5,2.5h-16.1c-1.4,0-2.5-1.1-2.5-2.5v-29.5
		C187.4,156.4,188.5,155.3,189.9,155.3z"/>
	<path class="st6" d="M206.1,155.8c1.1,0,2,0.9,2,2v29.5c0,1.1-0.9,2-2,2H190c-1.1,0-2-0.9-2-2v-29.5c0-1.1,0.9-2,2-2H206.1
		 M206.1,154.8H190c-1.7,0-3,1.3-3,3v29.5c0,1.7,1.3,3,3,3h16.1c1.7,0,3-1.3,3-3v-29.5C209.1,156.1,207.7,154.8,206.1,154.8z"/>
	<path class="st5" d="M189.9,40.3H206c1.4,0,2.5,1.1,2.5,2.5v29.5c0,1.4-1.1,2.5-2.5,2.5h-16.1c-1.4,0-2.5-1.1-2.5-2.5V42.8
		C187.4,41.4,188.5,40.3,189.9,40.3z"/>
	<path class="st6" d="M206.1,40.8c1.1,0,2,0.9,2,2v29.5c0,1.1-0.9,2-2,2H190c-1.1,0-2-0.9-2-2V42.8c0-1.1,0.9-2,2-2H206.1
		 M206.1,39.8H190c-1.7,0-3,1.3-3,3v29.5c0,1.7,1.3,3,3,3h16.1c1.7,0,3-1.3,3-3V42.8C209.1,41.1,207.7,39.8,206.1,39.8z"/>
	<path class="st5" d="M189.9,97.8H206c1.4,0,2.5,1.1,2.5,2.5v29.5c0,1.4-1.1,2.5-2.5,2.5h-16.1c-1.4,0-2.5-1.1-2.5-2.5v-29.5
		C187.4,98.9,188.5,97.8,189.9,97.8z"/>
	<path class="st6" d="M206.1,98.3c1.1,0,2,0.9,2,2v29.5c0,1.1-0.9,2-2,2H190c-1.1,0-2-0.9-2-2v-29.5c0-1.1,0.9-2,2-2H206.1
		 M206.1,97.3H190c-1.7,0-3,1.3-3,3v29.5c0,1.7,1.3,3,3,3h16.1c1.7,0,3-1.3,3-3v-29.5C209.1,98.6,207.7,97.3,206.1,97.3z"/>
	<path class="st7" d="M332.7,96h12.6c1.8,0,3.2,1.4,3.2,3.2v31.6c0,1.8-1.4,3.2-3.2,3.2h-12.6c-1.8,0-3.2-1.4-3.2-3.2V99.2
		C329.5,97.4,330.9,96,332.7,96z"/>
	<path class="st7" d="M332.7,38.5h12.6c1.8,0,3.2,1.4,3.2,3.2v31.6c0,1.8-1.4,3.2-3.2,3.2h-12.6c-1.8,0-3.2-1.4-3.2-3.2V41.7
		C329.5,39.9,330.9,38.5,332.7,38.5z"/>
	<path class="st7" d="M332.7,153.5h12.6c1.8,0,3.2,1.4,3.2,3.2v31.6c0,1.8-1.4,3.2-3.2,3.2h-12.6c-1.8,0-3.2-1.4-3.2-3.2v-31.6
		C329.5,154.9,330.9,153.5,332.7,153.5z"/>
	<path class="st7" d="M481.7,96h12.6c1.8,0,3.2,1.4,3.2,3.2v31.6c0,1.8-1.4,3.2-3.2,3.2h-12.6c-1.8,0-3.2-1.4-3.2-3.2V99.2
		C478.5,97.4,479.9,96,481.7,96z"/>
	<path class="st7" d="M481.7,38.5h12.6c1.8,0,3.2,1.4,3.2,3.2v31.6c0,1.8-1.4,3.2-3.2,3.2h-12.6c-1.8,0-3.2-1.4-3.2-3.2V41.7
		C478.5,39.9,479.9,38.5,481.7,38.5z"/>
	<path class="st7" d="M481.7,153.5h12.6c1.8,0,3.2,1.4,3.2,3.2v31.6c0,1.8-1.4,3.2-3.2,3.2h-12.6c-1.8,0-3.2-1.4-3.2-3.2v-31.6
		C478.5,154.9,479.9,153.5,481.7,153.5z"/>
	<path class="st7" d="M847.7,96h12.6c1.8,0,3.2,1.4,3.2,3.2v31.6c0,1.8-1.4,3.2-3.2,3.2h-12.6c-1.8,0-3.2-1.4-3.2-3.2V99.2
		C844.5,97.4,845.9,96,847.7,96z"/>
	<path class="st7" d="M847.7,38.5h12.6c1.8,0,3.2,1.4,3.2,3.2v31.6c0,1.8-1.4,3.2-3.2,3.2h-12.6c-1.8,0-3.2-1.4-3.2-3.2V41.7
		C844.5,39.9,845.9,38.5,847.7,38.5z"/>
	<path class="st7" d="M847.7,153.5h12.6c1.8,0,3.2,1.4,3.2,3.2v31.6c0,1.8-1.4,3.2-3.2,3.2h-12.6c-1.8,0-3.2-1.4-3.2-3.2v-31.6
		C844.5,154.9,845.9,153.5,847.7,153.5z"/>
</g>
<path class="st7" d="M52,112.1h21.7c0.4-5.5,2-10.8,4.7-15.6L63.5,85.4C56.7,93.2,52.6,102.3,52,112.1z"/>
<path class="st7" d="M82.7,90.2c7.9-9.8,20.4-17.3,35.3-21v-8.6C98.3,62.2,80.9,69.4,68.9,80l1.1,0.8L82.7,90.2z"/>
<path class="st7" d="M73.7,116.8H52c0.6,9.6,4.6,18.5,11.1,26.2l15-11.1C75.6,127.2,74.1,122.1,73.7,116.8z"/>
<path class="st7" d="M68.4,148.5c12,10.8,29.6,18.2,49.6,19.8v-8.6c-15.2-3.8-27.9-11.5-35.7-21.5L70,147.3L68.4,148.5z"/>
<polygon class="st8" points="220,12 214.8,12 217.4,6 220,0 222.6,6 225.2,12 "/>
<polygon class="st8" points="838,12 832.8,12 835.4,6 838,0 840.6,6 843.2,12 "/>
<polygon class="st8" points="506,12 500.8,12 503.4,6 506,0 508.6,6 511.2,12 "/>
<polygon class="st8" points="357,12 351.8,12 354.4,6 357,0 359.6,6 362.2,12 "/>
<polygon class="st8" points="218,218 212.8,218 215.4,224 218,230 220.6,224 223.2,218 "/>
<polygon class="st8" points="836,218 830.8,218 833.4,224 836,230 838.6,224 841.2,218 "/>
<polygon class="st8" points="504,218 498.8,218 501.4,224 504,230 506.6,224 509.2,218 "/>
<polygon class="st8" points="355,218 349.8,218 352.4,224 355,230 357.6,224 360.2,218 "/>
</svg>
